Patient4_TMGait_0pt7_02_right_35_EMG.mot
version=1
nRows=36
nColumns=33
inDegrees=no
endheader
time	1LAddLong	2LGlutMax	3LGlutMed	4LIliopsoas	5LSemiMemb	6LBicFemLong	7LRecFem	8LVastMed	9LVastLat	10LGasMed	11LTibAnt	12lTibPost	13LPeroneusLong	14LSol	15LExtDigLong	16LFlexDigLong	17RAddLong	18RGlutMax	19RGlutMed	20RIliopsoas	21RSemiMemb	22RBicFemLong	23RRecFem	24RVastMed	25RVastLat	26RGasMed	27RTibAnt	28RTibPost	29RPeroneusLong	30RSol	31RExtDigLong	32RFlexDigLong
40.693	-0.003662	0.035706	-0.005188	-0.00412	0.005493	0.11215	0.01236	0.008698	0.27329	-0.22064	-0.089874	0.008545	0.054474	-0.18097	-0.039978	0.010071	-0.017548	-0.051727	-0.12177	0.03952	0.015717	-0.00885	0.07431	-0.1564	0.011292	-0.003052	0.12985	-0.002594	-0.044708	0.041046	-0.001831	-0.010834
40.694	-0.008545	0.019684	-0.03067	0.004883	0.01236	0.076752	0.079346	0.005188	0.35126	-0.0383	-0.12665	0.019836	0.067902	-0.43961	-0.024719	-0.00946	-0.012512	-0.10391	-0.095215	0.020447	-0.024719	0.011902	0.042572	-0.08316	0.007172	0.001831	-0.052185	-0.002594	-0.06546	-0.003357	0.00351	-0.011597
40.695	-0.005341	0.035553	0.042114	-0.005798	0.012512	0.10544	0.11856	-0.00473	0.34439	0.066681	-0.1059	0.020599	-0.011444	-0.23193	0.010681	-0.007019	-0.033417	-0.10086	-0.050507	0.018921	-0.14221	0.027313	0.041656	-0.04837	0.022888	-0.00061	-0.091095	-0.002747	-0.036469	-0.012054	0.005493	-0.017548
40.696	-0.002594	0.039063	-0.026398	-0.001221	-0.003967	0.10101	0.074158	-0.022583	0.19196	0.056458	0.004578	0.024872	0.062256	0.009766	0.084076	-0.000916	-0.039063	-0.09552	-0.18097	-0.016174	-0.088348	0.033264	0.007477	-0.045929	0.01709	-0.00061	0.002441	-0.002747	0.16998	-0.0177	0.001526	-0.016785
40.697	0.008545	0.061188	-0.074768	-0.003357	-0.001526	0.066681	0.033112	-0.010223	-0.19379	-0.1294	0.20096	0.020752	0.019226	-0.002289	0.47745	-0.003815	-0.029449	-0.092316	-0.17502	-0.13412	0.079346	0.047455	0.033569	-0.023651	0.005341	0.00412	0.08606	-0.002441	0.028229	-0.045624	0.000458	-0.022125
40.698	0.00885	0.045929	0.013123	0.007477	0.002289	0.052948	0.039368	-0.007324	-0.43701	-0.25925	0.44235	0.014038	0.3952	0.22919	0.13351	-0.000458	-0.018616	-0.060272	-0.098419	-0.28412	0.054932	0.045929	0.023651	-0.046387	0.009155	-0.000458	0.017395	-0.003815	-0.12222	-0.053406	-0.00061	-0.023651
40.699	0.011444	0.03006	0.11185	-0.007019	0.001831	0.080261	0.046539	-0.001678	-0.25543	-0.23987	0.12985	0.01358	0.3035	0.3569	0.17258	-0.003204	-0.00351	-0.079651	-0.025635	-0.26825	-0.17029	0.075989	0.058289	-0.059662	-0.002747	0.001984	-0.015259	-0.001984	-0.08194	-0.049591	-0.000458	-0.02655
40.7	0.001831	0.005035	0.049133	-0.013123	-0.00061	0.10605	0.10269	0.015259	-0.098724	-0.17181	-0.071716	0.009155	-0.53574	0.31296	-0.22461	-0.004425	0.018311	-0.097504	-0.019531	-0.13382	-0.29846	0.037842	0.054626	-0.076599	-0.001068	-0.006104	0.003204	-0.008545	-0.055389	-0.063629	-0.004425	-0.029602
40.701	0.00351	0.010223	0.044556	-0.006104	0.002289	0.074005	0.16541	0.018463	-0.043335	-0.071716	-0.03006	0.003967	-0.43076	0.20615	-0.53589	-0.012207	0.013885	-0.081482	0.018005	0.032349	-0.15305	0.041351	0.008087	-0.039368	-0.009613	-0.010986	0.028229	-0.00351	-0.037994	-0.075531	0.00061	-0.02594
40.702	0.000305	-0.002899	0.013275	0.005341	-0.011292	0.10025	0.1207	0.005035	-0.005188	-0.013428	-0.18768	-0.000153	0.22339	0.083923	-0.66208	-0.015717	-0.008545	-0.08255	-0.012207	0.20462	0.1683	0.04776	0.00885	-0.023041	0.014038	-0.007935	0.05661	-0.003967	-0.01236	-0.067139	-0.003357	-0.027161
40.703	-0.004578	-0.012665	-0.020752	0.010223	-0.001984	0.13794	0.093079	-0.016022	0.006866	0.011597	-0.14938	-0.001221	-0.16098	0.10117	-0.43671	-0.009155	-0.003662	-0.087128	-0.005951	0.29343	0.18601	0.039673	0.044098	-0.051727	0.010529	-0.007935	0.030975	-0.004578	-0.057526	-0.072174	-0.005951	-0.029449
40.704	0.001526	-0.02533	-0.035095	0.020142	-0.012665	0.094147	0.10071	-0.020905	0.032196	0.013733	-0.023956	0.030365	0.13733	0.030365	-0.14648	-0.003815	-0.031738	-0.1059	0.11597	0.27939	0.19806	0.042419	0.021057	-0.034027	0.001526	-0.012512	-0.061035	-0.005951	-0.084686	-0.080872	-0.003662	-0.028687
40.705	-0.004425	-0.046387	-0.067139	0.026093	-0.014038	0.1004	0.11795	-0.014343	-0.003052	0.001678	0.12253	-0.001678	0.12634	0.15091	0.020294	-0.010071	-0.001221	-0.085144	0.26108	0.15243	0.12924	0.009003	0.010834	-0.099182	-0.004578	-0.007782	-0.12024	-0.006104	-0.10773	-0.052185	-0.001221	-0.028381
40.706	-0.006714	-0.011902	-0.059509	0.008392	-0.010376	0.079193	0.11383	0.00351	0.009003	0.01709	0.25986	0.012665	0.33112	0.1593	1.1421	-0.010834	0.054626	-0.067444	0.23987	0.020599	-0.046082	-0.007935	0.035706	-0.085297	-0.005035	-0.00412	-0.093231	-0.006256	0.027008	-0.084076	-0.001678	-0.026703
40.707	0.005035	0.010529	-0.034332	0.017242	-0.022125	0.063934	0.08316	0.011749	0.024261	-0.001678	0.15656	0.016632	-0.15732	0.095978	0.94696	0.006409	0.062256	-0.054932	-0.077362	0.007782	-0.1445	0.027771	-0.017548	-0.1033	0.005951	-0.002899	0.055542	-0.007935	0.22827	-0.12375	-0.001678	-0.023346
40.708	-0.000458	-0.007324	-0.031433	0.016632	-0.011902	0.049744	0.10437	0.00412	0.009003	-0.019836	-0.092468	0.01236	-0.82581	0.048981	0.12512	0.009918	0.039978	-0.028687	-0.10025	0.008545	-0.22125	0.10346	-0.024567	-0.093231	0.002289	0.017242	0.28046	-0.004425	0.30884	-0.11292	0.000305	-0.020752
40.709	0.000305	0.006714	-0.026855	-0.008545	0.009766	-0.021057	0.034027	0.009613	0.009308	-0.014038	-0.14099	0.007629	-0.043335	-0.06485	-0.51651	-0.016022	0.011139	-0.04715	-0.1178	-0.041504	0.026703	0.14435	-0.031586	-0.029755	-0.003204	0.00061	0.33966	-0.008392	-0.28397	-0.12619	-0.000153	-0.027161
40.71	0.000458	0.023041	-0.066986	0.002899	0.011292	-0.040894	0.046844	0.007172	0.032196	-0.012665	-0.089874	0.002899	0.16342	-0.078278	-0.672	-0.012665	0.021973	-0.003815	-0.1503	-0.071259	0.39688	0.12833	-0.031891	0.013123	0.021362	-0.001831	0.4129	-0.009308	-0.19913	-0.12238	-0.001068	-0.030518
40.711	-0.002136	-0.00824	-0.076447	0.017395	-0.015411	-0.023804	0.10742	0.008392	0.020447	0.00351	-0.1059	0.003357	0.1593	0.00946	-0.52811	-0.009918	0.063629	-0.016022	-0.15198	-0.10025	0.15213	-0.009613	-0.032959	-0.016022	-0.008392	-0.007629	0.44952	-0.005188	-0.13245	-0.091248	-0.005188	-0.021667
40.712	-0.009003	0.006409	0.046539	0.027466	-0.038147	-0.03479	0.14511	-0.000458	0.002441	0.00412	-0.079803	0.00351	0.20813	-0.053558	-0.33295	-0.002594	0.045929	-0.041962	0.058136	-0.077057	-0.019836	-0.077057	-0.025635	-0.053101	-0.010223	-0.009766	0.22354	-0.00473	-0.13336	-0.098114	-0.005188	-0.016174
40.713	-0.014343	-0.025177	0.087738	-0.00061	-0.039215	-0.022888	0.15656	0.00473	0.000763	0.011902	-0.028229	0.007172	-0.030975	-0.15442	-0.16052	-0.005646	0.028687	-0.079193	0.20172	-0.051727	-0.020905	-0.12009	-0.023041	-0.11795	-0.012512	-0.009003	0.072937	-0.002136	-0.11231	-0.083923	0.001678	-0.016937
40.714	-0.012054	-0.023956	-0.025635	0.000153	0.019226	0.057831	0.16098	0.003357	0.00351	0.005341	0.010529	0.010223	-0.044403	-0.15045	-0.027161	0.002594	-0.016174	-0.084229	-0.051575	0.028076	-0.064392	-0.064697	-0.019989	-0.10788	-0.008698	-0.002289	-0.03067	-0.005035	-0.059509	-0.06546	0.000305	-0.013275
40.715	0.001678	0.007019	-0.076599	0.003052	0.02121	-0.037384	0.12009	0.008392	0.023956	-0.037842	0.012512	0.008698	0.1149	-0.12497	0.14191	-0.001068	-0.059052	-0.066528	-0.45532	0.10132	-0.068512	-0.027924	-0.025024	-0.070648	0.014496	-0.007019	-0.051727	-0.003662	-0.10696	-0.039063	0.006714	-0.002441
40.716	0.007019	-0.023651	0.006409	0.008545	0.015869	-0.056763	0.091248	0.002441	0.027771	-0.082092	0.019073	0.00824	-0.090179	-0.11108	0.26489	0.003662	-0.071716	-0.083923	-0.66711	0.034485	-0.058289	-0.040131	-0.025787	-0.059052	-0.000916	-0.011444	0.18829	-0.003052	-0.11154	-0.018921	0.000916	0.009308
40.717	0.009003	-0.021057	0.054932	0.018616	-0.007935	-0.047913	0.10101	0.013733	0.011902	-0.071716	-0.055847	0.010376	-0.177	-0.12909	0.19882	0.011444	-0.053558	-0.075989	-0.53879	-0.030518	-0.067291	-0.043335	-0.031891	-0.071411	-0.002899	0.002899	0.14648	-0.008087	-0.36911	-0.027771	0.003052	0.008087
40.718	0.013733	-0.044708	-0.014648	0.025024	-0.009766	0.023804	0.055389	0.00885	0.001831	-0.06134	-0.11383	0.001678	-0.072327	-0.11292	0.1503	0.018158	-0.021362	-0.048981	-0.19638	-0.00351	0.053253	-0.056763	-0.046539	-0.055237	-0.010529	-0.002441	0.18997	-0.009003	-0.39627	-0.063629	0.004425	0.00351
40.719	0.011444	-0.043335	0.10574	0.001984	-0.062866	0.063782	0.086823	0.013733	-0.015106	-0.098267	-0.068207	0.006256	-0.089874	-0.036621	0.088806	0.015717	0.018158	-0.070496	0.03952	-0.027313	0.052643	-0.053406	-0.024414	-0.12894	-0.015564	-0.006714	0.22125	-0.004578	0.054016	-0.10483	0.001526	0.007629
40.72	0.000458	-0.035553	0.10422	-0.012817	-0.085297	0.01358	0.097046	0.01297	-0.023041	-0.051422	0.002747	0.010376	-0.18219	0.01297	0.11078	-0.003052	0.013123	-0.049133	0.010986	-0.042114	0.055695	0.015869	-0.033722	-0.12268	0	-0.007019	0.11047	-0.003815	0.67581	-0.14236	0.000916	0.009155
40.721	0.009155	-0.013275	0.11002	0.00885	-0.053406	0.06546	0.042419	0.021515	-0.011749	0.044556	0.10468	0.000305	-0.17929	0.042267	0.039673	-0.024414	0.0354	-0.002747	0.074615	0.000763	0.067749	0.039825	-0.052643	-0.045471	-0.01709	0.001984	-0.082855	-0.00412	0.4393	-0.19043	-0.002136	0.020752
40.722	0.012054	-0.021057	0.028687	0.011749	0.058899	0.23865	0.050507	0.006409	0.044403	0.13992	0.12466	0.006561	-0.13153	0.047455	0.28717	-0.019073	0.029144	0.020447	0.30853	0.041046	-0.018158	0.034027	-0.05661	-0.045166	-0.013123	0.005188	-0.21164	-0.003357	-0.11215	-0.1709	0.001526	0.018768
40.723	0.006866	-0.015411	-0.03067	0.017242	0.098419	0.17761	0.11643	0.001373	0.021667	0.15106	0.0914	0.001221	-0.019989	0.007019	0.58243	-0.000763	0.013885	0.031281	0.30624	0.029602	0.03418	-0.014038	-0.049744	-0.02594	0.000153	-0.005951	-0.28015	-0.012665	-0.15472	-0.062256	-0.000763	0.017242
40.724	0.005646	-0.000458	-0.016174	-0.00885	0.1294	0.080719	0.16342	0.010376	0.038605	0.13565	-0.029907	0.006256	0.11688	0.039368	0.06424	0.005646	0.003662	-0.02182	0.23331	0.005493	0.068512	-0.013123	-0.033264	0.002747	-0.000763	-0.011444	-0.059204	-0.012665	-0.050964	-0.050964	-0.000763	0.012512
40.725	0.007782	0.007935	-0.019531	0.007019	0.10452	0.057831	0.19913	0.010834	0.032501	0.112	-0.10346	0.009918	0.15717	0.037842	-0.41565	0.010986	-0.017548	-0.048523	0.33951	-0.025635	0.076904	0.26108	-0.014343	-0.042572	-0.003204	-0.012207	-0.33447	0.003357	0.03891	-0.034027	0.002441	0.021362
40.726	0.006256	-0.002747	-0.037231	0.007172	0.063934	0.036926	0.14664	0.006561	0.023499	0.11734	-0.054626	0.007019	0.11383	-0.11032	-0.26154	-0.018311	-0.032654	-0.092468	0.5574	-0.016937	0.039673	0.22324	-0.071564	-0.023499	0.000458	-0.001373	-0.47806	-0.006714	0.10696	-0.061188	-0.000763	0.031891
40.727	0.015411	0.00824	-0.033417	0.0177	0.028839	0.058289	0.13046	0.016632	0.016785	0.11444	-0.061493	0.006409	0.048218	-0.20416	-0.16861	-0.004425	-0.019226	-0.091858	0.24368	-0.023346	-0.093689	0.19257	-0.066376	-0.005798	0.002136	0.003357	-0.32974	-0.007935	-0.13229	-0.041046	0	0.020447
40.728	0.013428	0.012665	-0.007477	0.00885	0.024719	0.058441	0.1265	0.006256	0.049591	0.068665	-0.024109	0.017242	-0.011597	-0.14038	-0.049744	-0.009766	-0.071716	-0.17471	0.001678	-0.054169	-0.024261	0.17303	-0.06546	0.018463	0.005646	0	-0.15106	-0.007935	-0.064392	0.004425	0.001984	0.02655
